<?xml version="1.0" encoding="UTF-8" standalone="no"?>
<!DOCTYPE svg PUBLIC "-//W3C//DTD SVG 1.1//EN" "http://www.w3.org/Graphics/SVG/1.1/DTD/svg11.dtd">
<svg width="100%" height="100%" viewBox="0 0 48 48" version="1.1" xmlns="http://www.w3.org/2000/svg" xmlns:xlink="http://www.w3.org/1999/xlink" xml:space="preserve" xmlns:serif="http://www.serif.com/" style="fill-rule:evenodd;clip-rule:evenodd;stroke-linejoin:round;stroke-miterlimit:2;">
    <g transform="matrix(1.46982,0,0,1.46982,-11.2757,-6.0841)">
        <path d="M24,36.309C22.402,36.309 21.104,33.853 21.104,30.829C21.104,28.36 21.969,26.271 23.155,25.586L23.155,24.464C22.637,24.144 22.203,23.536 21.92,22.758L19.022,25.656L19.022,35.425C19.022,35.705 18.794,35.932 18.514,35.932C18.235,35.932 18.007,35.705 18.007,35.425L18.007,25.48C18.007,25.474 18.007,25.469 18.008,25.463C18.003,25.328 18.053,25.191 18.156,25.088L21.637,21.607C21.609,21.409 21.589,21.206 21.579,20.999L18.136,20.999L13.831,26.616C13.661,26.838 13.342,26.881 13.12,26.71C12.898,26.54 12.856,26.221 13.026,25.999L17.484,20.184C17.597,20.036 17.775,19.968 17.947,19.989C17.967,19.986 17.987,19.985 18.007,19.985L21.605,19.985C21.606,19.978 21.606,19.971 21.607,19.963C21.53,19.94 21.457,19.898 21.395,19.837L17.141,15.583C17.037,15.478 16.987,15.338 16.994,15.201C16.993,15.193 16.993,15.186 16.993,15.178L16.993,9.162C16.993,8.882 17.22,8.655 17.5,8.655C17.78,8.655 18.007,8.882 18.007,9.162L18.007,15.014L21.831,18.838C22.106,17.931 22.579,17.22 23.155,16.863L23.155,16.06C21.584,15.742 20.416,14.558 20.416,13.147C20.416,12.23 20.909,11.409 21.686,10.859L20.124,9.297C20.018,9.191 19.968,9.049 19.976,8.91C19.976,8.9 19.976,8.891 19.976,8.881L19.976,5.134C19.976,4.854 20.203,4.627 20.483,4.627C20.763,4.627 20.99,4.854 20.99,5.134L20.99,8.729L22.636,10.375C23.056,10.23 23.517,10.15 24,10.15C24.483,10.15 24.944,10.23 25.364,10.375L27.01,8.729L27.01,5.134C27.01,4.854 27.237,4.627 27.517,4.627C27.797,4.627 28.024,4.854 28.024,5.134L28.024,8.881C28.024,8.891 28.024,8.9 28.024,8.91C28.032,9.049 27.982,9.191 27.876,9.297L26.314,10.859C27.091,11.409 27.584,12.23 27.584,13.147C27.584,14.558 26.416,15.742 24.845,16.06L24.845,16.863C25.421,17.22 25.894,17.931 26.169,18.838L29.993,15.014L29.993,9.162C29.993,8.882 30.22,8.655 30.5,8.655C30.78,8.655 31.007,8.882 31.007,9.162L31.007,15.178C31.007,15.186 31.007,15.193 31.006,15.201C31.013,15.338 30.963,15.478 30.859,15.583L26.605,19.837C26.543,19.898 26.47,19.94 26.393,19.963C26.394,19.971 26.394,19.978 26.395,19.985L29.993,19.985C30.013,19.985 30.033,19.986 30.053,19.989C30.225,19.968 30.403,20.036 30.516,20.184L34.974,25.999C35.144,26.221 35.102,26.54 34.88,26.71C34.658,26.881 34.339,26.838 34.169,26.616L29.864,20.999L26.421,20.999C26.411,21.206 26.391,21.409 26.363,21.607L29.844,25.088C29.947,25.191 29.997,25.328 29.992,25.463C29.993,25.469 29.993,25.474 29.993,25.48L29.993,35.425C29.993,35.705 29.765,35.932 29.486,35.932C29.206,35.932 28.978,35.705 28.978,35.425L28.978,25.656L26.08,22.758C25.797,23.536 25.363,24.144 24.845,24.464L24.845,25.586C26.031,26.271 26.896,28.36 26.896,30.829C26.896,33.853 25.598,36.309 24,36.309Z"/>
    </g>
</svg>
